<svg xmlns="http://www.w3.org/2000/svg" xmlns:xlink="http://www.w3.org/1999/xlink" width="900" zoomAndPan="magnify" viewBox="0 0 675 149.999998" height="200" preserveAspectRatio="xMidYMid meet" version="1.0"><defs><g/><clipPath id="e06ef00fe1"><path d="M 69 0.441406 L 480 0.441406 L 480 43 L 69 43 Z M 69 0.441406 " clip-rule="nonzero"/></clipPath><clipPath id="17926cb253"><path d="M 0.199219 9 L 22 9 L 22 34 L 0.199219 34 Z M 0.199219 9 " clip-rule="nonzero"/></clipPath><clipPath id="61af376913"><rect x="0" width="411" y="0" height="43"/></clipPath><clipPath id="c46f1cd919"><path d="M 0.558594 48 L 546.078125 48 L 546.078125 74.839844 L 0.558594 74.839844 Z M 0.558594 48 " clip-rule="nonzero"/></clipPath><clipPath id="1034080189"><rect x="0" width="547" y="0" height="27"/></clipPath><clipPath id="7cad96aee2"><rect x="0" width="547" y="0" height="75"/></clipPath><clipPath id="ea942fc0aa"><path d="M 553.714844 15 L 573 15 L 573 30 L 553.714844 30 Z M 553.714844 15 " clip-rule="nonzero"/></clipPath><clipPath id="d17e456d44"><path d="M 594 30 L 613.714844 30 L 613.714844 45 L 594 45 Z M 594 30 " clip-rule="nonzero"/></clipPath></defs><g transform="matrix(1, 0, 0, 1, 64, 37)"><g clip-path="url(#7cad96aee2)"><g clip-path="url(#e06ef00fe1)"><g transform="matrix(1, 0, 0, 1, 69, -0.000000000000007105)"><g clip-path="url(#61af376913)"><g fill="#ff00ff" fill-opacity="1"><g transform="translate(2.221431, 33.668443)"><g><path d="M 6.953125 -3.484375 L 13.890625 -3.484375 L 13.890625 -10.421875 L 6.953125 -10.421875 Z M 6.953125 -13.890625 L 13.890625 -13.890625 L 13.890625 -20.859375 L 6.953125 -20.859375 Z M 17.375 -13.890625 L 17.375 -10.4375 L 20.859375 -10.4375 L 20.859375 -3.484375 L 17.375 -3.484375 L 17.375 0 L 0 0 L 0 -24.328125 L 17.375 -24.328125 L 17.375 -20.859375 L 20.859375 -20.859375 L 20.859375 -13.890625 Z M 17.375 -13.890625 "/></g></g></g><g fill="#ff00ff" fill-opacity="1"><g transform="translate(28.983045, 33.668443)"><g><path d="M 6.953125 -3.484375 L 20.859375 -3.484375 L 20.859375 0 L 0 0 L 0 -24.328125 L 20.859375 -24.328125 L 20.859375 -20.859375 L 6.953125 -20.859375 L 6.953125 -13.890625 L 17.375 -13.890625 L 17.375 -10.421875 L 6.953125 -10.421875 Z M 6.953125 -3.484375 "/></g></g></g><g fill="#ff00ff" fill-opacity="1"><g transform="translate(55.744658, 33.668443)"><g><path d="M 17.375 -3.484375 L 17.375 0 L 0 0 L 0 -24.328125 L 6.921875 -24.328125 L 6.921875 -3.484375 Z M 17.375 -3.484375 "/></g></g></g><g fill="#ff00ff" fill-opacity="1"><g transform="translate(79.028276, 33.668443)"><g><path d="M 6.953125 -3.484375 L 20.859375 -3.484375 L 20.859375 0 L 0 0 L 0 -24.328125 L 20.859375 -24.328125 L 20.859375 -20.859375 L 6.953125 -20.859375 L 6.953125 -13.890625 L 17.375 -13.890625 L 17.375 -10.421875 L 6.953125 -10.421875 Z M 6.953125 -3.484375 "/></g></g></g><g fill="#ff00ff" fill-opacity="1"><g transform="translate(105.789889, 33.668443)"><g><path d="M 24.328125 -24.328125 L 24.328125 0 L 17.375 0 L 17.375 -6.953125 L 13.890625 -6.953125 L 13.890625 -10.421875 L 10.421875 -10.421875 L 10.421875 -13.890625 L 6.953125 -13.890625 L 6.953125 0 L 0 0 L 0 -24.328125 L 6.953125 -24.328125 L 6.953125 -20.859375 L 10.421875 -20.859375 L 10.421875 -17.375 L 13.890625 -17.375 L 13.890625 -13.890625 L 17.375 -13.890625 L 17.375 -24.328125 Z M 24.328125 -24.328125 "/></g></g></g><g fill="#ff00ff" fill-opacity="1"><g transform="translate(136.012539, 33.668443)"><g/></g></g><g fill="#ff00ff" fill-opacity="1"><g transform="translate(148.862146, 33.668443)"><g><path d="M 10.421875 -10.421875 L 13.890625 -10.421875 L 13.890625 -17.375 L 10.421875 -17.375 Z M 6.953125 -24.328125 L 17.375 -24.328125 L 17.375 -17.375 L 20.859375 -17.375 L 20.859375 -6.953125 L 24.328125 -6.953125 L 24.328125 0 L 17.375 0 L 17.375 -6.953125 L 6.953125 -6.953125 L 6.953125 0 L 0 0 L 0 -6.953125 L 3.484375 -6.953125 L 3.484375 -17.375 L 6.953125 -17.375 Z M 6.953125 -24.328125 "/></g></g></g><g fill="#ff00ff" fill-opacity="1"><g transform="translate(179.084795, 33.668443)"><g><path d="M 17.375 -3.484375 L 17.375 0 L 0 0 L 0 -24.328125 L 6.921875 -24.328125 L 6.921875 -3.484375 Z M 17.375 -3.484375 "/></g></g></g><g fill="#ff00ff" fill-opacity="1"><g transform="translate(202.368413, 33.668443)"><g><path d="M 17.375 -13.890625 L 17.375 -24.328125 L 27.796875 -24.328125 L 27.796875 0 L 20.84375 0 L 20.84375 -10.421875 L 17.375 -10.421875 L 17.375 0 L 10.421875 0 L 10.421875 -10.421875 L 6.953125 -10.421875 L 6.953125 0 L 0 0 L 0 -24.328125 L 10.421875 -24.328125 L 10.421875 -13.890625 Z M 17.375 -13.890625 "/></g></g></g><g fill="#ff00ff" fill-opacity="1"><g transform="translate(236.069082, 33.668443)"><g><path d="M 6.953125 -3.484375 L 20.859375 -3.484375 L 20.859375 0 L 0 0 L 0 -24.328125 L 20.859375 -24.328125 L 20.859375 -20.859375 L 6.953125 -20.859375 L 6.953125 -13.890625 L 17.375 -13.890625 L 17.375 -10.421875 L 6.953125 -10.421875 Z M 6.953125 -3.484375 "/></g></g></g><g fill="#ff00ff" fill-opacity="1"><g transform="translate(262.830672, 33.668443)"><g><path d="M 24.328125 -24.328125 L 24.328125 0 L 17.375 0 L 17.375 -6.953125 L 13.890625 -6.953125 L 13.890625 -10.421875 L 10.421875 -10.421875 L 10.421875 -13.890625 L 6.953125 -13.890625 L 6.953125 0 L 0 0 L 0 -24.328125 L 6.953125 -24.328125 L 6.953125 -20.859375 L 10.421875 -20.859375 L 10.421875 -17.375 L 13.890625 -17.375 L 13.890625 -13.890625 L 17.375 -13.890625 L 17.375 -24.328125 Z M 24.328125 -24.328125 "/></g></g></g><g fill="#ff00ff" fill-opacity="1"><g transform="translate(293.053322, 33.668443)"><g><path d="M 17.375 -17.375 L 13.890625 -17.375 L 13.890625 -20.859375 L 6.953125 -20.859375 L 6.953125 -3.484375 L 13.890625 -3.484375 L 13.890625 -6.953125 L 17.375 -6.953125 Z M 20.859375 -20.859375 L 20.859375 -17.375 L 24.328125 -17.375 L 24.328125 -6.953125 L 20.859375 -6.953125 L 20.859375 -3.484375 L 17.375 -3.484375 L 17.375 0 L 0 0 L 0 -24.328125 L 17.375 -24.328125 L 17.375 -20.859375 Z M 20.859375 -20.859375 "/></g></g></g><g fill="#ff00ff" fill-opacity="1"><g transform="translate(323.275972, 33.668443)"><g><path d="M 6.953125 -13.890625 L 13.90625 -13.890625 L 13.90625 -20.859375 L 6.953125 -20.859375 Z M 6.953125 -10.421875 L 6.953125 0 L 0 0 L 0 -24.328125 L 17.375 -24.328125 L 17.375 -20.859375 L 20.859375 -20.859375 L 20.859375 -13.890625 L 17.375 -13.890625 L 17.375 -10.421875 L 20.859375 -10.421875 L 20.859375 0 L 13.890625 0 L 13.890625 -10.421875 Z M 6.953125 -10.421875 "/></g></g></g><g fill="#ff00ff" fill-opacity="1"><g transform="translate(350.037608, 33.668443)"><g><path d="M 3.484375 -17.375 L 3.484375 -20.859375 L 6.953125 -20.859375 L 6.953125 -24.328125 L 20.859375 -24.328125 L 20.859375 -20.859375 L 24.328125 -20.859375 L 24.328125 -17.375 L 27.796875 -17.375 L 27.796875 -6.953125 L 24.328125 -6.953125 L 24.328125 -3.484375 L 20.859375 -3.484375 L 20.859375 0 L 6.953125 0 L 6.953125 -3.484375 L 3.484375 -3.484375 L 3.484375 -6.953125 L 0 -6.953125 L 0 -17.375 Z M 17.375 -17.375 L 17.375 -20.859375 L 10.421875 -20.859375 L 10.421875 -17.40625 L 6.953125 -17.40625 L 6.953125 -6.921875 L 10.421875 -6.921875 L 10.421875 -3.484375 L 17.375 -3.484375 L 17.375 -6.953125 L 20.859375 -6.953125 L 20.859375 -17.375 Z M 17.375 -17.375 "/></g></g></g><g fill="#ff00ff" fill-opacity="1"><g transform="translate(383.738254, 33.668443)"><g><path d="M 3.484375 -3.484375 L 0 -3.484375 L 0 -6.953125 L 6.953125 -6.953125 L 6.953125 -3.484375 L 13.890625 -3.484375 L 13.890625 -10.421875 L 3.484375 -10.421875 L 3.484375 -13.890625 L 0 -13.890625 L 0 -20.859375 L 3.484375 -20.859375 L 3.484375 -24.328125 L 17.375 -24.328125 L 17.375 -20.859375 L 20.859375 -20.859375 L 20.859375 -17.375 L 13.890625 -17.375 L 13.890625 -20.859375 L 6.953125 -20.859375 L 6.953125 -13.890625 L 17.375 -13.890625 L 17.375 -10.421875 L 20.859375 -10.421875 L 20.859375 -3.484375 L 17.375 -3.484375 L 17.375 0 L 3.484375 0 Z M 3.484375 -3.484375 "/></g></g></g><g clip-path="url(#17926cb253)"><g fill="#00ffff" fill-opacity="1"><g transform="translate(0.918263, 33.668443)"><g><path d="M 6.953125 -3.484375 L 13.890625 -3.484375 L 13.890625 -10.421875 L 6.953125 -10.421875 Z M 6.953125 -13.890625 L 13.890625 -13.890625 L 13.890625 -20.859375 L 6.953125 -20.859375 Z M 17.375 -13.890625 L 17.375 -10.4375 L 20.859375 -10.4375 L 20.859375 -3.484375 L 17.375 -3.484375 L 17.375 0 L 0 0 L 0 -24.328125 L 17.375 -24.328125 L 17.375 -20.859375 L 20.859375 -20.859375 L 20.859375 -13.890625 Z M 17.375 -13.890625 "/></g></g></g></g><g fill="#00ffff" fill-opacity="1"><g transform="translate(27.679876, 33.668443)"><g><path d="M 6.953125 -3.484375 L 20.859375 -3.484375 L 20.859375 0 L 0 0 L 0 -24.328125 L 20.859375 -24.328125 L 20.859375 -20.859375 L 6.953125 -20.859375 L 6.953125 -13.890625 L 17.375 -13.890625 L 17.375 -10.421875 L 6.953125 -10.421875 Z M 6.953125 -3.484375 "/></g></g></g><g fill="#00ffff" fill-opacity="1"><g transform="translate(54.441489, 33.668443)"><g><path d="M 17.375 -3.484375 L 17.375 0 L 0 0 L 0 -24.328125 L 6.921875 -24.328125 L 6.921875 -3.484375 Z M 17.375 -3.484375 "/></g></g></g><g fill="#00ffff" fill-opacity="1"><g transform="translate(77.725107, 33.668443)"><g><path d="M 6.953125 -3.484375 L 20.859375 -3.484375 L 20.859375 0 L 0 0 L 0 -24.328125 L 20.859375 -24.328125 L 20.859375 -20.859375 L 6.953125 -20.859375 L 6.953125 -13.890625 L 17.375 -13.890625 L 17.375 -10.421875 L 6.953125 -10.421875 Z M 6.953125 -3.484375 "/></g></g></g><g fill="#00ffff" fill-opacity="1"><g transform="translate(104.48672, 33.668443)"><g><path d="M 24.328125 -24.328125 L 24.328125 0 L 17.375 0 L 17.375 -6.953125 L 13.890625 -6.953125 L 13.890625 -10.421875 L 10.421875 -10.421875 L 10.421875 -13.890625 L 6.953125 -13.890625 L 6.953125 0 L 0 0 L 0 -24.328125 L 6.953125 -24.328125 L 6.953125 -20.859375 L 10.421875 -20.859375 L 10.421875 -17.375 L 13.890625 -17.375 L 13.890625 -13.890625 L 17.375 -13.890625 L 17.375 -24.328125 Z M 24.328125 -24.328125 "/></g></g></g><g fill="#00ffff" fill-opacity="1"><g transform="translate(134.70937, 33.668443)"><g/></g></g><g fill="#00ffff" fill-opacity="1"><g transform="translate(147.558977, 33.668443)"><g><path d="M 10.421875 -10.421875 L 13.890625 -10.421875 L 13.890625 -17.375 L 10.421875 -17.375 Z M 6.953125 -24.328125 L 17.375 -24.328125 L 17.375 -17.375 L 20.859375 -17.375 L 20.859375 -6.953125 L 24.328125 -6.953125 L 24.328125 0 L 17.375 0 L 17.375 -6.953125 L 6.953125 -6.953125 L 6.953125 0 L 0 0 L 0 -6.953125 L 3.484375 -6.953125 L 3.484375 -17.375 L 6.953125 -17.375 Z M 6.953125 -24.328125 "/></g></g></g><g fill="#00ffff" fill-opacity="1"><g transform="translate(177.781626, 33.668443)"><g><path d="M 17.375 -3.484375 L 17.375 0 L 0 0 L 0 -24.328125 L 6.921875 -24.328125 L 6.921875 -3.484375 Z M 17.375 -3.484375 "/></g></g></g><g fill="#00ffff" fill-opacity="1"><g transform="translate(201.065244, 33.668443)"><g><path d="M 17.375 -13.890625 L 17.375 -24.328125 L 27.796875 -24.328125 L 27.796875 0 L 20.84375 0 L 20.84375 -10.421875 L 17.375 -10.421875 L 17.375 0 L 10.421875 0 L 10.421875 -10.421875 L 6.953125 -10.421875 L 6.953125 0 L 0 0 L 0 -24.328125 L 10.421875 -24.328125 L 10.421875 -13.890625 Z M 17.375 -13.890625 "/></g></g></g><g fill="#00ffff" fill-opacity="1"><g transform="translate(234.765913, 33.668443)"><g><path d="M 6.953125 -3.484375 L 20.859375 -3.484375 L 20.859375 0 L 0 0 L 0 -24.328125 L 20.859375 -24.328125 L 20.859375 -20.859375 L 6.953125 -20.859375 L 6.953125 -13.890625 L 17.375 -13.890625 L 17.375 -10.421875 L 6.953125 -10.421875 Z M 6.953125 -3.484375 "/></g></g></g><g fill="#00ffff" fill-opacity="1"><g transform="translate(261.527504, 33.668443)"><g><path d="M 24.328125 -24.328125 L 24.328125 0 L 17.375 0 L 17.375 -6.953125 L 13.890625 -6.953125 L 13.890625 -10.421875 L 10.421875 -10.421875 L 10.421875 -13.890625 L 6.953125 -13.890625 L 6.953125 0 L 0 0 L 0 -24.328125 L 6.953125 -24.328125 L 6.953125 -20.859375 L 10.421875 -20.859375 L 10.421875 -17.375 L 13.890625 -17.375 L 13.890625 -13.890625 L 17.375 -13.890625 L 17.375 -24.328125 Z M 24.328125 -24.328125 "/></g></g></g><g fill="#00ffff" fill-opacity="1"><g transform="translate(291.750153, 33.668443)"><g><path d="M 17.375 -17.375 L 13.890625 -17.375 L 13.890625 -20.859375 L 6.953125 -20.859375 L 6.953125 -3.484375 L 13.890625 -3.484375 L 13.890625 -6.953125 L 17.375 -6.953125 Z M 20.859375 -20.859375 L 20.859375 -17.375 L 24.328125 -17.375 L 24.328125 -6.953125 L 20.859375 -6.953125 L 20.859375 -3.484375 L 17.375 -3.484375 L 17.375 0 L 0 0 L 0 -24.328125 L 17.375 -24.328125 L 17.375 -20.859375 Z M 20.859375 -20.859375 "/></g></g></g><g fill="#00ffff" fill-opacity="1"><g transform="translate(321.972803, 33.668443)"><g><path d="M 6.953125 -13.890625 L 13.90625 -13.890625 L 13.90625 -20.859375 L 6.953125 -20.859375 Z M 6.953125 -10.421875 L 6.953125 0 L 0 0 L 0 -24.328125 L 17.375 -24.328125 L 17.375 -20.859375 L 20.859375 -20.859375 L 20.859375 -13.890625 L 17.375 -13.890625 L 17.375 -10.421875 L 20.859375 -10.421875 L 20.859375 0 L 13.890625 0 L 13.890625 -10.421875 Z M 6.953125 -10.421875 "/></g></g></g><g fill="#00ffff" fill-opacity="1"><g transform="translate(348.73444, 33.668443)"><g><path d="M 3.484375 -17.375 L 3.484375 -20.859375 L 6.953125 -20.859375 L 6.953125 -24.328125 L 20.859375 -24.328125 L 20.859375 -20.859375 L 24.328125 -20.859375 L 24.328125 -17.375 L 27.796875 -17.375 L 27.796875 -6.953125 L 24.328125 -6.953125 L 24.328125 -3.484375 L 20.859375 -3.484375 L 20.859375 0 L 6.953125 0 L 6.953125 -3.484375 L 3.484375 -3.484375 L 3.484375 -6.953125 L 0 -6.953125 L 0 -17.375 Z M 17.375 -17.375 L 17.375 -20.859375 L 10.421875 -20.859375 L 10.421875 -17.40625 L 6.953125 -17.40625 L 6.953125 -6.921875 L 10.421875 -6.921875 L 10.421875 -3.484375 L 17.375 -3.484375 L 17.375 -6.953125 L 20.859375 -6.953125 L 20.859375 -17.375 Z M 17.375 -17.375 "/></g></g></g><g fill="#00ffff" fill-opacity="1"><g transform="translate(382.435085, 33.668443)"><g><path d="M 3.484375 -3.484375 L 0 -3.484375 L 0 -6.953125 L 6.953125 -6.953125 L 6.953125 -3.484375 L 13.890625 -3.484375 L 13.890625 -10.421875 L 3.484375 -10.421875 L 3.484375 -13.890625 L 0 -13.890625 L 0 -20.859375 L 3.484375 -20.859375 L 3.484375 -24.328125 L 17.375 -24.328125 L 17.375 -20.859375 L 20.859375 -20.859375 L 20.859375 -17.375 L 13.890625 -17.375 L 13.890625 -20.859375 L 6.953125 -20.859375 L 6.953125 -13.890625 L 17.375 -13.890625 L 17.375 -10.421875 L 20.859375 -10.421875 L 20.859375 -3.484375 L 17.375 -3.484375 L 17.375 0 L 3.484375 0 Z M 3.484375 -3.484375 "/></g></g></g><g fill="#e2a9f1" fill-opacity="1"><g transform="translate(1.569841, 33.668443)"><g><path d="M 6.953125 -3.484375 L 13.890625 -3.484375 L 13.890625 -10.421875 L 6.953125 -10.421875 Z M 6.953125 -13.890625 L 13.890625 -13.890625 L 13.890625 -20.859375 L 6.953125 -20.859375 Z M 17.375 -13.890625 L 17.375 -10.4375 L 20.859375 -10.4375 L 20.859375 -3.484375 L 17.375 -3.484375 L 17.375 0 L 0 0 L 0 -24.328125 L 17.375 -24.328125 L 17.375 -20.859375 L 20.859375 -20.859375 L 20.859375 -13.890625 Z M 17.375 -13.890625 "/></g></g></g><g fill="#e2a9f1" fill-opacity="1"><g transform="translate(28.331454, 33.668443)"><g><path d="M 6.953125 -3.484375 L 20.859375 -3.484375 L 20.859375 0 L 0 0 L 0 -24.328125 L 20.859375 -24.328125 L 20.859375 -20.859375 L 6.953125 -20.859375 L 6.953125 -13.890625 L 17.375 -13.890625 L 17.375 -10.421875 L 6.953125 -10.421875 Z M 6.953125 -3.484375 "/></g></g></g><g fill="#e2a9f1" fill-opacity="1"><g transform="translate(55.093068, 33.668443)"><g><path d="M 17.375 -3.484375 L 17.375 0 L 0 0 L 0 -24.328125 L 6.921875 -24.328125 L 6.921875 -3.484375 Z M 17.375 -3.484375 "/></g></g></g><g fill="#e2a9f1" fill-opacity="1"><g transform="translate(78.376685, 33.668443)"><g><path d="M 6.953125 -3.484375 L 20.859375 -3.484375 L 20.859375 0 L 0 0 L 0 -24.328125 L 20.859375 -24.328125 L 20.859375 -20.859375 L 6.953125 -20.859375 L 6.953125 -13.890625 L 17.375 -13.890625 L 17.375 -10.421875 L 6.953125 -10.421875 Z M 6.953125 -3.484375 "/></g></g></g><g fill="#e2a9f1" fill-opacity="1"><g transform="translate(105.138299, 33.668443)"><g><path d="M 24.328125 -24.328125 L 24.328125 0 L 17.375 0 L 17.375 -6.953125 L 13.890625 -6.953125 L 13.890625 -10.421875 L 10.421875 -10.421875 L 10.421875 -13.890625 L 6.953125 -13.890625 L 6.953125 0 L 0 0 L 0 -24.328125 L 6.953125 -24.328125 L 6.953125 -20.859375 L 10.421875 -20.859375 L 10.421875 -17.375 L 13.890625 -17.375 L 13.890625 -13.890625 L 17.375 -13.890625 L 17.375 -24.328125 Z M 24.328125 -24.328125 "/></g></g></g><g fill="#e2a9f1" fill-opacity="1"><g transform="translate(135.360948, 33.668443)"><g/></g></g><g fill="#e2a9f1" fill-opacity="1"><g transform="translate(148.210555, 33.668443)"><g><path d="M 10.421875 -10.421875 L 13.890625 -10.421875 L 13.890625 -17.375 L 10.421875 -17.375 Z M 6.953125 -24.328125 L 17.375 -24.328125 L 17.375 -17.375 L 20.859375 -17.375 L 20.859375 -6.953125 L 24.328125 -6.953125 L 24.328125 0 L 17.375 0 L 17.375 -6.953125 L 6.953125 -6.953125 L 6.953125 0 L 0 0 L 0 -6.953125 L 3.484375 -6.953125 L 3.484375 -17.375 L 6.953125 -17.375 Z M 6.953125 -24.328125 "/></g></g></g><g fill="#e2a9f1" fill-opacity="1"><g transform="translate(178.433205, 33.668443)"><g><path d="M 17.375 -3.484375 L 17.375 0 L 0 0 L 0 -24.328125 L 6.921875 -24.328125 L 6.921875 -3.484375 Z M 17.375 -3.484375 "/></g></g></g><g fill="#e2a9f1" fill-opacity="1"><g transform="translate(201.716822, 33.668443)"><g><path d="M 17.375 -13.890625 L 17.375 -24.328125 L 27.796875 -24.328125 L 27.796875 0 L 20.84375 0 L 20.84375 -10.421875 L 17.375 -10.421875 L 17.375 0 L 10.421875 0 L 10.421875 -10.421875 L 6.953125 -10.421875 L 6.953125 0 L 0 0 L 0 -24.328125 L 10.421875 -24.328125 L 10.421875 -13.890625 Z M 17.375 -13.890625 "/></g></g></g><g fill="#e2a9f1" fill-opacity="1"><g transform="translate(235.417491, 33.668443)"><g><path d="M 6.953125 -3.484375 L 20.859375 -3.484375 L 20.859375 0 L 0 0 L 0 -24.328125 L 20.859375 -24.328125 L 20.859375 -20.859375 L 6.953125 -20.859375 L 6.953125 -13.890625 L 17.375 -13.890625 L 17.375 -10.421875 L 6.953125 -10.421875 Z M 6.953125 -3.484375 "/></g></g></g><g fill="#e2a9f1" fill-opacity="1"><g transform="translate(262.179082, 33.668443)"><g><path d="M 24.328125 -24.328125 L 24.328125 0 L 17.375 0 L 17.375 -6.953125 L 13.890625 -6.953125 L 13.890625 -10.421875 L 10.421875 -10.421875 L 10.421875 -13.890625 L 6.953125 -13.890625 L 6.953125 0 L 0 0 L 0 -24.328125 L 6.953125 -24.328125 L 6.953125 -20.859375 L 10.421875 -20.859375 L 10.421875 -17.375 L 13.890625 -17.375 L 13.890625 -13.890625 L 17.375 -13.890625 L 17.375 -24.328125 Z M 24.328125 -24.328125 "/></g></g></g><g fill="#e2a9f1" fill-opacity="1"><g transform="translate(292.401732, 33.668443)"><g><path d="M 17.375 -17.375 L 13.890625 -17.375 L 13.890625 -20.859375 L 6.953125 -20.859375 L 6.953125 -3.484375 L 13.890625 -3.484375 L 13.890625 -6.953125 L 17.375 -6.953125 Z M 20.859375 -20.859375 L 20.859375 -17.375 L 24.328125 -17.375 L 24.328125 -6.953125 L 20.859375 -6.953125 L 20.859375 -3.484375 L 17.375 -3.484375 L 17.375 0 L 0 0 L 0 -24.328125 L 17.375 -24.328125 L 17.375 -20.859375 Z M 20.859375 -20.859375 "/></g></g></g><g fill="#e2a9f1" fill-opacity="1"><g transform="translate(322.624381, 33.668443)"><g><path d="M 6.953125 -13.890625 L 13.90625 -13.890625 L 13.90625 -20.859375 L 6.953125 -20.859375 Z M 6.953125 -10.421875 L 6.953125 0 L 0 0 L 0 -24.328125 L 17.375 -24.328125 L 17.375 -20.859375 L 20.859375 -20.859375 L 20.859375 -13.890625 L 17.375 -13.890625 L 17.375 -10.421875 L 20.859375 -10.421875 L 20.859375 0 L 13.890625 0 L 13.890625 -10.421875 Z M 6.953125 -10.421875 "/></g></g></g><g fill="#e2a9f1" fill-opacity="1"><g transform="translate(349.386018, 33.668443)"><g><path d="M 3.484375 -17.375 L 3.484375 -20.859375 L 6.953125 -20.859375 L 6.953125 -24.328125 L 20.859375 -24.328125 L 20.859375 -20.859375 L 24.328125 -20.859375 L 24.328125 -17.375 L 27.796875 -17.375 L 27.796875 -6.953125 L 24.328125 -6.953125 L 24.328125 -3.484375 L 20.859375 -3.484375 L 20.859375 0 L 6.953125 0 L 6.953125 -3.484375 L 3.484375 -3.484375 L 3.484375 -6.953125 L 0 -6.953125 L 0 -17.375 Z M 17.375 -17.375 L 17.375 -20.859375 L 10.421875 -20.859375 L 10.421875 -17.40625 L 6.953125 -17.40625 L 6.953125 -6.921875 L 10.421875 -6.921875 L 10.421875 -3.484375 L 17.375 -3.484375 L 17.375 -6.953125 L 20.859375 -6.953125 L 20.859375 -17.375 Z M 17.375 -17.375 "/></g></g></g><g fill="#e2a9f1" fill-opacity="1"><g transform="translate(383.086664, 33.668443)"><g><path d="M 3.484375 -3.484375 L 0 -3.484375 L 0 -6.953125 L 6.953125 -6.953125 L 6.953125 -3.484375 L 13.890625 -3.484375 L 13.890625 -10.421875 L 3.484375 -10.421875 L 3.484375 -13.890625 L 0 -13.890625 L 0 -20.859375 L 3.484375 -20.859375 L 3.484375 -24.328125 L 17.375 -24.328125 L 17.375 -20.859375 L 20.859375 -20.859375 L 20.859375 -17.375 L 13.890625 -17.375 L 13.890625 -20.859375 L 6.953125 -20.859375 L 6.953125 -13.890625 L 17.375 -13.890625 L 17.375 -10.421875 L 20.859375 -10.421875 L 20.859375 -3.484375 L 17.375 -3.484375 L 17.375 0 L 3.484375 0 Z M 3.484375 -3.484375 "/></g></g></g></g></g></g><g clip-path="url(#c46f1cd919)"><g transform="matrix(1, 0, 0, 1, 0, 48)"><g clip-path="url(#1034080189)"><g fill="#ff00ff" fill-opacity="1"><g transform="translate(2.02703, 20.789434)"><g><path d="M 2.171875 0 L 0 0 L 0 -15.234375 L 10.875 -15.234375 L 10.875 -13.046875 L 2.171875 -13.046875 L 2.171875 -8.703125 L 8.703125 -8.703125 L 8.703125 -6.515625 L 2.171875 -6.515625 Z M 2.171875 0 "/></g></g><g transform="translate(17.256275, 20.789434)"><g><path d="M 2.171875 -2.171875 L 0 -2.171875 L 0 -15.234375 L 2.171875 -15.234375 Z M 13.046875 -15.234375 L 13.046875 -2.171875 L 10.875 -2.171875 L 10.875 -15.234375 Z M 2.171875 -2.171875 L 10.875 -2.171875 L 10.875 0 L 2.171875 0 Z M 2.171875 -2.171875 "/></g></g><g transform="translate(34.652023, 20.789434)"><g><path d="M 8.703125 -2.171875 L 8.703125 0 L 0 0 L 0 -15.234375 L 2.15625 -15.234375 L 2.15625 -2.171875 Z M 8.703125 -2.171875 "/></g></g><g transform="translate(47.704144, 20.789434)"><g><path d="M 8.703125 -2.171875 L 8.703125 0 L 0 0 L 0 -15.234375 L 2.15625 -15.234375 L 2.15625 -2.171875 Z M 8.703125 -2.171875 "/></g></g><g transform="translate(60.756265, 20.789434)"><g/></g><g transform="translate(67.277016, 20.789434)"><g><path d="M 2.171875 -8.703125 L 8.703125 -8.703125 L 8.703125 -6.515625 L 10.875 -6.515625 L 10.875 -2.171875 L 8.703125 -2.171875 L 8.703125 -6.515625 L 2.171875 -6.515625 Z M 2.171875 -15.234375 L 8.703125 -15.234375 L 8.703125 -13.046875 L 10.875 -13.046875 L 10.875 -10.875 L 8.703125 -10.875 L 8.703125 -13.046875 L 2.171875 -13.046875 Z M 2.171875 -2.171875 L 8.703125 -2.171875 L 8.703125 0 L 2.171875 0 Z M 2.171875 -8.703125 L 0 -8.703125 L 0 -13.046875 L 2.171875 -13.046875 Z M 2.171875 -2.171875 L 0 -2.171875 L 0 -4.359375 L 2.171875 -4.359375 Z M 2.171875 -2.171875 "/></g></g><g transform="translate(82.50626, 20.789434)"><g><path d="M 0 -15.234375 L 10.875 -15.234375 L 10.875 -13.046875 L 6.53125 -13.046875 L 6.53125 0 L 4.359375 0 L 4.359375 -13.046875 L 0 -13.046875 Z M 0 -15.234375 "/></g></g><g transform="translate(97.735505, 20.789434)"><g><path d="M 4.359375 -15.234375 L 8.703125 -15.234375 L 8.703125 -10.875 L 10.875 -10.875 L 10.875 -4.359375 L 13.046875 -4.359375 L 13.046875 0 L 10.875 0 L 10.875 -4.359375 L 2.171875 -4.359375 L 2.171875 -10.875 L 4.359375 -10.875 Z M 8.703125 -6.53125 L 8.703125 -10.859375 L 4.359375 -10.859375 L 4.359375 -6.53125 Z M 0 0 L 0 -4.359375 L 2.171875 -4.359375 L 2.171875 0 Z M 0 0 "/></g></g><g transform="translate(115.131253, 20.789434)"><g><path d="M 13.046875 -13.046875 L 13.046875 -10.875 L 10.875 -10.875 L 10.875 -13.046875 L 4.359375 -13.046875 L 4.359375 -15.234375 L 10.875 -15.234375 L 10.875 -13.046875 Z M 4.359375 -4.328125 L 4.359375 -2.171875 L 10.875 -2.171875 L 10.875 0 L 4.359375 0 L 4.359375 -2.171875 L 2.171875 -2.171875 L 2.171875 -4.328125 Z M 2.171875 -10.875 L 2.171875 -4.359375 L 0 -4.359375 L 0 -10.875 Z M 10.875 -2.171875 L 10.875 -4.359375 L 13.046875 -4.359375 L 13.046875 -2.171875 Z M 4.359375 -10.890625 L 2.171875 -10.890625 L 2.171875 -13.046875 L 4.359375 -13.046875 Z M 4.359375 -10.890625 "/></g></g><g transform="translate(132.527002, 20.789434)"><g><path d="M 2.171875 0 L 0 0 L 0 -15.234375 L 2.171875 -15.234375 L 2.171875 -8.703125 L 4.359375 -8.703125 L 4.359375 -10.875 L 6.53125 -10.875 L 6.53125 -6.515625 L 8.703125 -6.515625 L 8.703125 -4.359375 L 10.875 -4.359375 L 10.875 0 L 8.703125 0 L 8.703125 -4.359375 L 6.53125 -4.359375 L 6.53125 -6.515625 L 2.171875 -6.515625 Z M 8.703125 -13.046875 L 8.703125 -15.234375 L 10.875 -15.234375 L 10.875 -13.046875 Z M 6.515625 -13.046875 L 8.703125 -13.046875 L 8.703125 -10.875 L 6.515625 -10.875 Z M 6.515625 -13.046875 "/></g></g><g transform="translate(147.756246, 20.789434)"><g/></g><g transform="translate(154.276997, 20.789434)"><g><path d="M 8.703125 -2.171875 L 8.703125 0 L 0 0 L 0 -15.234375 L 8.703125 -15.234375 L 8.703125 -13.046875 L 10.875 -13.046875 L 10.875 -10.875 L 13.046875 -10.875 L 13.046875 -4.359375 L 10.875 -4.359375 L 10.875 -2.171875 Z M 8.671875 -13.046875 L 2.171875 -13.046875 L 2.171875 -2.171875 L 8.671875 -2.171875 L 8.671875 -4.359375 L 10.859375 -4.359375 L 10.859375 -10.875 L 8.671875 -10.875 Z M 8.671875 -13.046875 "/></g></g><g transform="translate(171.672745, 20.789434)"><g><path d="M 2.171875 -2.171875 L 10.875 -2.171875 L 10.875 0 L 0 0 L 0 -15.234375 L 10.875 -15.234375 L 10.875 -13.046875 L 2.171875 -13.046875 L 2.171875 -8.703125 L 8.703125 -8.703125 L 8.703125 -6.515625 L 2.171875 -6.515625 Z M 2.171875 -2.171875 "/></g></g><g transform="translate(186.90199, 20.789434)"><g><path d="M 4.359375 -10.875 L 4.359375 -4.359375 L 8.703125 -4.359375 L 8.703125 0 L 4.359375 0 L 4.359375 -4.359375 L 2.171875 -4.359375 L 2.171875 -10.875 L 0 -10.875 L 0 -15.234375 L 2.171875 -15.234375 L 2.171875 -10.875 Z M 8.703125 -4.359375 L 8.703125 -10.875 L 10.875 -10.875 L 10.875 -4.359375 Z M 10.875 -15.234375 L 13.046875 -15.234375 L 13.046875 -10.875 L 10.875 -10.875 Z M 10.875 -15.234375 "/></g></g><g transform="translate(204.297738, 20.789434)"><g><path d="M 2.171875 -2.171875 L 10.875 -2.171875 L 10.875 0 L 0 0 L 0 -15.234375 L 10.875 -15.234375 L 10.875 -13.046875 L 2.171875 -13.046875 L 2.171875 -8.703125 L 8.703125 -8.703125 L 8.703125 -6.515625 L 2.171875 -6.515625 Z M 2.171875 -2.171875 "/></g></g><g transform="translate(219.526983, 20.789434)"><g><path d="M 8.703125 -2.171875 L 8.703125 0 L 0 0 L 0 -15.234375 L 2.15625 -15.234375 L 2.15625 -2.171875 Z M 8.703125 -2.171875 "/></g></g><g transform="translate(232.579104, 20.789434)"><g><path d="M 2.171875 -4.359375 L 0 -4.359375 L 0 -10.875 L 2.171875 -10.875 L 2.171875 -13.046875 L 4.359375 -13.046875 L 4.359375 -15.234375 L 10.875 -15.234375 L 10.875 -13.046875 L 13.046875 -13.046875 L 13.046875 -10.875 L 15.234375 -10.875 L 15.234375 -4.359375 L 13.046875 -4.359375 L 13.046875 -2.171875 L 10.875 -2.171875 L 10.875 0 L 4.359375 0 L 4.359375 -2.171875 L 2.171875 -2.171875 Z M 4.359375 -2.203125 L 10.875 -2.203125 L 10.875 -4.359375 L 13.03125 -4.359375 L 13.03125 -10.875 L 10.875 -10.875 L 10.875 -13.03125 L 4.359375 -13.03125 L 4.359375 -10.875 L 2.203125 -10.875 L 2.203125 -4.359375 L 4.359375 -4.359375 Z M 4.359375 -2.203125 "/></g></g><g transform="translate(252.151975, 20.789434)"><g><path d="M 8.703125 -8.703125 L 8.703125 -6.515625 L 2.171875 -6.515625 L 2.171875 0 L 0 0 L 0 -15.234375 L 8.703125 -15.234375 L 8.703125 -13.046875 L 10.875 -13.046875 L 10.875 -8.703125 Z M 2.171875 -8.703125 L 8.671875 -8.703125 L 8.671875 -13.046875 L 2.171875 -13.046875 Z M 2.171875 -8.703125 "/></g></g><g transform="translate(267.38122, 20.789434)"><g><path d="M 2.171875 -2.171875 L 10.875 -2.171875 L 10.875 0 L 0 0 L 0 -15.234375 L 10.875 -15.234375 L 10.875 -13.046875 L 2.171875 -13.046875 L 2.171875 -8.703125 L 8.703125 -8.703125 L 8.703125 -6.515625 L 2.171875 -6.515625 Z M 2.171875 -2.171875 "/></g></g><g transform="translate(282.610465, 20.789434)"><g><path d="M 2.171875 -6.515625 L 2.171875 0 L 0 0 L 0 -15.234375 L 8.703125 -15.234375 L 8.703125 -13.046875 L 10.875 -13.046875 L 10.875 -8.703125 L 8.703125 -8.703125 L 8.703125 -6.515625 Z M 2.171875 -8.703125 L 8.671875 -8.703125 L 8.671875 -13.046875 L 2.171875 -13.046875 Z M 10.875 -6.515625 L 10.875 0 L 8.703125 0 L 8.703125 -6.515625 Z M 10.875 -6.515625 "/></g></g><g transform="translate(297.839709, 20.789434)"><g/></g><g transform="translate(304.36046, 20.789434)"><g><path d="M 0 -6.53125 L 6.515625 -6.53125 L 6.515625 -4.359375 L 0 -4.359375 Z M 0 -6.53125 "/></g></g><g transform="translate(315.235458, 20.789434)"><g/></g><g transform="translate(321.756208, 20.789434)"><g><path d="M 2.171875 0 L 0 0 L 0 -15.234375 L 10.875 -15.234375 L 10.875 -13.046875 L 2.171875 -13.046875 L 2.171875 -8.703125 L 8.703125 -8.703125 L 8.703125 -6.515625 L 2.171875 -6.515625 Z M 2.171875 0 "/></g></g><g transform="translate(336.985453, 20.789434)"><g><path d="M 2.171875 -6.515625 L 2.171875 0 L 0 0 L 0 -15.234375 L 8.703125 -15.234375 L 8.703125 -13.046875 L 10.875 -13.046875 L 10.875 -8.703125 L 8.703125 -8.703125 L 8.703125 -6.515625 Z M 2.171875 -8.703125 L 8.671875 -8.703125 L 8.671875 -13.046875 L 2.171875 -13.046875 Z M 10.875 -6.515625 L 10.875 0 L 8.703125 0 L 8.703125 -6.515625 Z M 10.875 -6.515625 "/></g></g><g transform="translate(352.214698, 20.789434)"><g><path d="M 2.171875 -4.359375 L 0 -4.359375 L 0 -10.875 L 2.171875 -10.875 L 2.171875 -13.046875 L 4.359375 -13.046875 L 4.359375 -15.234375 L 10.875 -15.234375 L 10.875 -13.046875 L 13.046875 -13.046875 L 13.046875 -10.875 L 15.234375 -10.875 L 15.234375 -4.359375 L 13.046875 -4.359375 L 13.046875 -2.171875 L 10.875 -2.171875 L 10.875 0 L 4.359375 0 L 4.359375 -2.171875 L 2.171875 -2.171875 Z M 4.359375 -2.203125 L 10.875 -2.203125 L 10.875 -4.359375 L 13.03125 -4.359375 L 13.03125 -10.875 L 10.875 -10.875 L 10.875 -13.03125 L 4.359375 -13.03125 L 4.359375 -10.875 L 2.203125 -10.875 L 2.203125 -4.359375 L 4.359375 -4.359375 Z M 4.359375 -2.203125 "/></g></g><g transform="translate(371.787569, 20.789434)"><g><path d="M 10.875 -6.53125 L 10.875 -15.234375 L 13.046875 -15.234375 L 13.046875 0 L 10.875 0 L 10.875 -4.359375 L 8.703125 -4.359375 L 8.703125 -6.53125 L 6.53125 -6.53125 L 6.53125 -8.703125 L 4.359375 -8.703125 L 4.359375 -10.875 L 2.171875 -10.875 L 2.171875 0 L 0 0 L 0 -15.234375 L 2.171875 -15.234375 L 2.171875 -13.046875 L 4.359375 -13.046875 L 4.359375 -10.875 L 6.53125 -10.875 L 6.53125 -8.703125 L 8.703125 -8.703125 L 8.703125 -6.53125 Z M 10.875 -6.53125 "/></g></g><g transform="translate(389.183317, 20.789434)"><g><path d="M 0 -15.234375 L 10.875 -15.234375 L 10.875 -13.046875 L 6.53125 -13.046875 L 6.53125 0 L 4.359375 0 L 4.359375 -13.046875 L 0 -13.046875 Z M 0 -15.234375 "/></g></g><g transform="translate(404.412562, 20.789434)"><g><path d="M 2.171875 -2.171875 L 10.875 -2.171875 L 10.875 0 L 0 0 L 0 -15.234375 L 10.875 -15.234375 L 10.875 -13.046875 L 2.171875 -13.046875 L 2.171875 -8.703125 L 8.703125 -8.703125 L 8.703125 -6.515625 L 2.171875 -6.515625 Z M 2.171875 -2.171875 "/></g></g><g transform="translate(419.641807, 20.789434)"><g><path d="M 10.875 -6.53125 L 10.875 -15.234375 L 13.046875 -15.234375 L 13.046875 0 L 10.875 0 L 10.875 -4.359375 L 8.703125 -4.359375 L 8.703125 -6.53125 L 6.53125 -6.53125 L 6.53125 -8.703125 L 4.359375 -8.703125 L 4.359375 -10.875 L 2.171875 -10.875 L 2.171875 0 L 0 0 L 0 -15.234375 L 2.171875 -15.234375 L 2.171875 -13.046875 L 4.359375 -13.046875 L 4.359375 -10.875 L 6.53125 -10.875 L 6.53125 -8.703125 L 8.703125 -8.703125 L 8.703125 -6.53125 Z M 10.875 -6.53125 "/></g></g><g transform="translate(437.037555, 20.789434)"><g><path d="M 8.703125 -2.171875 L 8.703125 0 L 0 0 L 0 -15.234375 L 8.703125 -15.234375 L 8.703125 -13.046875 L 10.875 -13.046875 L 10.875 -10.875 L 13.046875 -10.875 L 13.046875 -4.359375 L 10.875 -4.359375 L 10.875 -2.171875 Z M 8.671875 -13.046875 L 2.171875 -13.046875 L 2.171875 -2.171875 L 8.671875 -2.171875 L 8.671875 -4.359375 L 10.859375 -4.359375 L 10.859375 -10.875 L 8.671875 -10.875 Z M 8.671875 -13.046875 "/></g></g><g transform="translate(454.433303, 20.789434)"><g/></g><g transform="translate(460.954054, 20.789434)"><g><path d="M 2.171875 0 L 0 0 L 0 -15.234375 L 10.875 -15.234375 L 10.875 -13.046875 L 2.171875 -13.046875 L 2.171875 -8.703125 L 8.703125 -8.703125 L 8.703125 -6.515625 L 2.171875 -6.515625 Z M 2.171875 0 "/></g></g><g transform="translate(476.183298, 20.789434)"><g><path d="M 2.171875 -4.359375 L 0 -4.359375 L 0 -10.875 L 2.171875 -10.875 L 2.171875 -13.046875 L 4.359375 -13.046875 L 4.359375 -15.234375 L 10.875 -15.234375 L 10.875 -13.046875 L 13.046875 -13.046875 L 13.046875 -10.875 L 15.234375 -10.875 L 15.234375 -4.359375 L 13.046875 -4.359375 L 13.046875 -2.171875 L 10.875 -2.171875 L 10.875 0 L 4.359375 0 L 4.359375 -2.171875 L 2.171875 -2.171875 Z M 4.359375 -2.203125 L 10.875 -2.203125 L 10.875 -4.359375 L 13.03125 -4.359375 L 13.03125 -10.875 L 10.875 -10.875 L 10.875 -13.03125 L 4.359375 -13.03125 L 4.359375 -10.875 L 2.203125 -10.875 L 2.203125 -4.359375 L 4.359375 -4.359375 Z M 4.359375 -2.203125 "/></g></g><g transform="translate(495.75617, 20.789434)"><g><path d="M 13.046875 -13.046875 L 13.046875 -10.875 L 10.875 -10.875 L 10.875 -13.046875 L 4.359375 -13.046875 L 4.359375 -15.234375 L 10.875 -15.234375 L 10.875 -13.046875 Z M 4.359375 -4.328125 L 4.359375 -2.171875 L 10.875 -2.171875 L 10.875 0 L 4.359375 0 L 4.359375 -2.171875 L 2.171875 -2.171875 L 2.171875 -4.328125 Z M 2.171875 -10.875 L 2.171875 -4.359375 L 0 -4.359375 L 0 -10.875 Z M 10.875 -2.171875 L 10.875 -4.359375 L 13.046875 -4.359375 L 13.046875 -2.171875 Z M 4.359375 -10.890625 L 2.171875 -10.890625 L 2.171875 -13.046875 L 4.359375 -13.046875 Z M 4.359375 -10.890625 "/></g></g><g transform="translate(513.151918, 20.789434)"><g><path d="M 2.171875 -2.171875 L 0 -2.171875 L 0 -15.234375 L 2.171875 -15.234375 Z M 13.046875 -15.234375 L 13.046875 -2.171875 L 10.875 -2.171875 L 10.875 -15.234375 Z M 2.171875 -2.171875 L 10.875 -2.171875 L 10.875 0 L 2.171875 0 Z M 2.171875 -2.171875 "/></g></g><g transform="translate(530.547666, 20.789434)"><g><path d="M 2.171875 -8.703125 L 8.703125 -8.703125 L 8.703125 -6.515625 L 10.875 -6.515625 L 10.875 -2.171875 L 8.703125 -2.171875 L 8.703125 -6.515625 L 2.171875 -6.515625 Z M 2.171875 -15.234375 L 8.703125 -15.234375 L 8.703125 -13.046875 L 10.875 -13.046875 L 10.875 -10.875 L 8.703125 -10.875 L 8.703125 -13.046875 L 2.171875 -13.046875 Z M 2.171875 -2.171875 L 8.703125 -2.171875 L 8.703125 0 L 2.171875 0 Z M 2.171875 -8.703125 L 0 -8.703125 L 0 -13.046875 L 2.171875 -13.046875 Z M 2.171875 -2.171875 L 0 -2.171875 L 0 -4.359375 L 2.171875 -4.359375 Z M 2.171875 -2.171875 "/></g></g></g><g fill="#00ffff" fill-opacity="1"><g transform="translate(1.211359, 20.789434)"><g><path d="M 2.171875 0 L 0 0 L 0 -15.234375 L 10.875 -15.234375 L 10.875 -13.046875 L 2.171875 -13.046875 L 2.171875 -8.703125 L 8.703125 -8.703125 L 8.703125 -6.515625 L 2.171875 -6.515625 Z M 2.171875 0 "/></g></g><g transform="translate(16.440603, 20.789434)"><g><path d="M 2.171875 -2.171875 L 0 -2.171875 L 0 -15.234375 L 2.171875 -15.234375 Z M 13.046875 -15.234375 L 13.046875 -2.171875 L 10.875 -2.171875 L 10.875 -15.234375 Z M 2.171875 -2.171875 L 10.875 -2.171875 L 10.875 0 L 2.171875 0 Z M 2.171875 -2.171875 "/></g></g><g transform="translate(33.836352, 20.789434)"><g><path d="M 8.703125 -2.171875 L 8.703125 0 L 0 0 L 0 -15.234375 L 2.15625 -15.234375 L 2.15625 -2.171875 Z M 8.703125 -2.171875 "/></g></g><g transform="translate(46.888473, 20.789434)"><g><path d="M 8.703125 -2.171875 L 8.703125 0 L 0 0 L 0 -15.234375 L 2.15625 -15.234375 L 2.15625 -2.171875 Z M 8.703125 -2.171875 "/></g></g><g transform="translate(59.940594, 20.789434)"><g/></g><g transform="translate(66.461345, 20.789434)"><g><path d="M 2.171875 -8.703125 L 8.703125 -8.703125 L 8.703125 -6.515625 L 10.875 -6.515625 L 10.875 -2.171875 L 8.703125 -2.171875 L 8.703125 -6.515625 L 2.171875 -6.515625 Z M 2.171875 -15.234375 L 8.703125 -15.234375 L 8.703125 -13.046875 L 10.875 -13.046875 L 10.875 -10.875 L 8.703125 -10.875 L 8.703125 -13.046875 L 2.171875 -13.046875 Z M 2.171875 -2.171875 L 8.703125 -2.171875 L 8.703125 0 L 2.171875 0 Z M 2.171875 -8.703125 L 0 -8.703125 L 0 -13.046875 L 2.171875 -13.046875 Z M 2.171875 -2.171875 L 0 -2.171875 L 0 -4.359375 L 2.171875 -4.359375 Z M 2.171875 -2.171875 "/></g></g><g transform="translate(81.690589, 20.789434)"><g><path d="M 0 -15.234375 L 10.875 -15.234375 L 10.875 -13.046875 L 6.53125 -13.046875 L 6.53125 0 L 4.359375 0 L 4.359375 -13.046875 L 0 -13.046875 Z M 0 -15.234375 "/></g></g><g transform="translate(96.919834, 20.789434)"><g><path d="M 4.359375 -15.234375 L 8.703125 -15.234375 L 8.703125 -10.875 L 10.875 -10.875 L 10.875 -4.359375 L 13.046875 -4.359375 L 13.046875 0 L 10.875 0 L 10.875 -4.359375 L 2.171875 -4.359375 L 2.171875 -10.875 L 4.359375 -10.875 Z M 8.703125 -6.53125 L 8.703125 -10.859375 L 4.359375 -10.859375 L 4.359375 -6.53125 Z M 0 0 L 0 -4.359375 L 2.171875 -4.359375 L 2.171875 0 Z M 0 0 "/></g></g><g transform="translate(114.315582, 20.789434)"><g><path d="M 13.046875 -13.046875 L 13.046875 -10.875 L 10.875 -10.875 L 10.875 -13.046875 L 4.359375 -13.046875 L 4.359375 -15.234375 L 10.875 -15.234375 L 10.875 -13.046875 Z M 4.359375 -4.328125 L 4.359375 -2.171875 L 10.875 -2.171875 L 10.875 0 L 4.359375 0 L 4.359375 -2.171875 L 2.171875 -2.171875 L 2.171875 -4.328125 Z M 2.171875 -10.875 L 2.171875 -4.359375 L 0 -4.359375 L 0 -10.875 Z M 10.875 -2.171875 L 10.875 -4.359375 L 13.046875 -4.359375 L 13.046875 -2.171875 Z M 4.359375 -10.890625 L 2.171875 -10.890625 L 2.171875 -13.046875 L 4.359375 -13.046875 Z M 4.359375 -10.890625 "/></g></g><g transform="translate(131.71133, 20.789434)"><g><path d="M 2.171875 0 L 0 0 L 0 -15.234375 L 2.171875 -15.234375 L 2.171875 -8.703125 L 4.359375 -8.703125 L 4.359375 -10.875 L 6.53125 -10.875 L 6.53125 -6.515625 L 8.703125 -6.515625 L 8.703125 -4.359375 L 10.875 -4.359375 L 10.875 0 L 8.703125 0 L 8.703125 -4.359375 L 6.53125 -4.359375 L 6.53125 -6.515625 L 2.171875 -6.515625 Z M 8.703125 -13.046875 L 8.703125 -15.234375 L 10.875 -15.234375 L 10.875 -13.046875 Z M 6.515625 -13.046875 L 8.703125 -13.046875 L 8.703125 -10.875 L 6.515625 -10.875 Z M 6.515625 -13.046875 "/></g></g><g transform="translate(146.940575, 20.789434)"><g/></g><g transform="translate(153.461326, 20.789434)"><g><path d="M 8.703125 -2.171875 L 8.703125 0 L 0 0 L 0 -15.234375 L 8.703125 -15.234375 L 8.703125 -13.046875 L 10.875 -13.046875 L 10.875 -10.875 L 13.046875 -10.875 L 13.046875 -4.359375 L 10.875 -4.359375 L 10.875 -2.171875 Z M 8.671875 -13.046875 L 2.171875 -13.046875 L 2.171875 -2.171875 L 8.671875 -2.171875 L 8.671875 -4.359375 L 10.859375 -4.359375 L 10.859375 -10.875 L 8.671875 -10.875 Z M 8.671875 -13.046875 "/></g></g><g transform="translate(170.857074, 20.789434)"><g><path d="M 2.171875 -2.171875 L 10.875 -2.171875 L 10.875 0 L 0 0 L 0 -15.234375 L 10.875 -15.234375 L 10.875 -13.046875 L 2.171875 -13.046875 L 2.171875 -8.703125 L 8.703125 -8.703125 L 8.703125 -6.515625 L 2.171875 -6.515625 Z M 2.171875 -2.171875 "/></g></g><g transform="translate(186.086319, 20.789434)"><g><path d="M 4.359375 -10.875 L 4.359375 -4.359375 L 8.703125 -4.359375 L 8.703125 0 L 4.359375 0 L 4.359375 -4.359375 L 2.171875 -4.359375 L 2.171875 -10.875 L 0 -10.875 L 0 -15.234375 L 2.171875 -15.234375 L 2.171875 -10.875 Z M 8.703125 -4.359375 L 8.703125 -10.875 L 10.875 -10.875 L 10.875 -4.359375 Z M 10.875 -15.234375 L 13.046875 -15.234375 L 13.046875 -10.875 L 10.875 -10.875 Z M 10.875 -15.234375 "/></g></g><g transform="translate(203.482067, 20.789434)"><g><path d="M 2.171875 -2.171875 L 10.875 -2.171875 L 10.875 0 L 0 0 L 0 -15.234375 L 10.875 -15.234375 L 10.875 -13.046875 L 2.171875 -13.046875 L 2.171875 -8.703125 L 8.703125 -8.703125 L 8.703125 -6.515625 L 2.171875 -6.515625 Z M 2.171875 -2.171875 "/></g></g><g transform="translate(218.711311, 20.789434)"><g><path d="M 8.703125 -2.171875 L 8.703125 0 L 0 0 L 0 -15.234375 L 2.15625 -15.234375 L 2.15625 -2.171875 Z M 8.703125 -2.171875 "/></g></g><g transform="translate(231.763433, 20.789434)"><g><path d="M 2.171875 -4.359375 L 0 -4.359375 L 0 -10.875 L 2.171875 -10.875 L 2.171875 -13.046875 L 4.359375 -13.046875 L 4.359375 -15.234375 L 10.875 -15.234375 L 10.875 -13.046875 L 13.046875 -13.046875 L 13.046875 -10.875 L 15.234375 -10.875 L 15.234375 -4.359375 L 13.046875 -4.359375 L 13.046875 -2.171875 L 10.875 -2.171875 L 10.875 0 L 4.359375 0 L 4.359375 -2.171875 L 2.171875 -2.171875 Z M 4.359375 -2.203125 L 10.875 -2.203125 L 10.875 -4.359375 L 13.03125 -4.359375 L 13.03125 -10.875 L 10.875 -10.875 L 10.875 -13.03125 L 4.359375 -13.03125 L 4.359375 -10.875 L 2.203125 -10.875 L 2.203125 -4.359375 L 4.359375 -4.359375 Z M 4.359375 -2.203125 "/></g></g><g transform="translate(251.336304, 20.789434)"><g><path d="M 8.703125 -8.703125 L 8.703125 -6.515625 L 2.171875 -6.515625 L 2.171875 0 L 0 0 L 0 -15.234375 L 8.703125 -15.234375 L 8.703125 -13.046875 L 10.875 -13.046875 L 10.875 -8.703125 Z M 2.171875 -8.703125 L 8.671875 -8.703125 L 8.671875 -13.046875 L 2.171875 -13.046875 Z M 2.171875 -8.703125 "/></g></g><g transform="translate(266.565549, 20.789434)"><g><path d="M 2.171875 -2.171875 L 10.875 -2.171875 L 10.875 0 L 0 0 L 0 -15.234375 L 10.875 -15.234375 L 10.875 -13.046875 L 2.171875 -13.046875 L 2.171875 -8.703125 L 8.703125 -8.703125 L 8.703125 -6.515625 L 2.171875 -6.515625 Z M 2.171875 -2.171875 "/></g></g><g transform="translate(281.794794, 20.789434)"><g><path d="M 2.171875 -6.515625 L 2.171875 0 L 0 0 L 0 -15.234375 L 8.703125 -15.234375 L 8.703125 -13.046875 L 10.875 -13.046875 L 10.875 -8.703125 L 8.703125 -8.703125 L 8.703125 -6.515625 Z M 2.171875 -8.703125 L 8.671875 -8.703125 L 8.671875 -13.046875 L 2.171875 -13.046875 Z M 10.875 -6.515625 L 10.875 0 L 8.703125 0 L 8.703125 -6.515625 Z M 10.875 -6.515625 "/></g></g><g transform="translate(297.024038, 20.789434)"><g/></g><g transform="translate(303.544789, 20.789434)"><g><path d="M 0 -6.53125 L 6.515625 -6.53125 L 6.515625 -4.359375 L 0 -4.359375 Z M 0 -6.53125 "/></g></g><g transform="translate(314.419787, 20.789434)"><g/></g><g transform="translate(320.940537, 20.789434)"><g><path d="M 2.171875 0 L 0 0 L 0 -15.234375 L 10.875 -15.234375 L 10.875 -13.046875 L 2.171875 -13.046875 L 2.171875 -8.703125 L 8.703125 -8.703125 L 8.703125 -6.515625 L 2.171875 -6.515625 Z M 2.171875 0 "/></g></g><g transform="translate(336.169782, 20.789434)"><g><path d="M 2.171875 -6.515625 L 2.171875 0 L 0 0 L 0 -15.234375 L 8.703125 -15.234375 L 8.703125 -13.046875 L 10.875 -13.046875 L 10.875 -8.703125 L 8.703125 -8.703125 L 8.703125 -6.515625 Z M 2.171875 -8.703125 L 8.671875 -8.703125 L 8.671875 -13.046875 L 2.171875 -13.046875 Z M 10.875 -6.515625 L 10.875 0 L 8.703125 0 L 8.703125 -6.515625 Z M 10.875 -6.515625 "/></g></g><g transform="translate(351.399026, 20.789434)"><g><path d="M 2.171875 -4.359375 L 0 -4.359375 L 0 -10.875 L 2.171875 -10.875 L 2.171875 -13.046875 L 4.359375 -13.046875 L 4.359375 -15.234375 L 10.875 -15.234375 L 10.875 -13.046875 L 13.046875 -13.046875 L 13.046875 -10.875 L 15.234375 -10.875 L 15.234375 -4.359375 L 13.046875 -4.359375 L 13.046875 -2.171875 L 10.875 -2.171875 L 10.875 0 L 4.359375 0 L 4.359375 -2.171875 L 2.171875 -2.171875 Z M 4.359375 -2.203125 L 10.875 -2.203125 L 10.875 -4.359375 L 13.03125 -4.359375 L 13.03125 -10.875 L 10.875 -10.875 L 10.875 -13.03125 L 4.359375 -13.03125 L 4.359375 -10.875 L 2.203125 -10.875 L 2.203125 -4.359375 L 4.359375 -4.359375 Z M 4.359375 -2.203125 "/></g></g><g transform="translate(370.971898, 20.789434)"><g><path d="M 10.875 -6.53125 L 10.875 -15.234375 L 13.046875 -15.234375 L 13.046875 0 L 10.875 0 L 10.875 -4.359375 L 8.703125 -4.359375 L 8.703125 -6.53125 L 6.53125 -6.53125 L 6.53125 -8.703125 L 4.359375 -8.703125 L 4.359375 -10.875 L 2.171875 -10.875 L 2.171875 0 L 0 0 L 0 -15.234375 L 2.171875 -15.234375 L 2.171875 -13.046875 L 4.359375 -13.046875 L 4.359375 -10.875 L 6.53125 -10.875 L 6.53125 -8.703125 L 8.703125 -8.703125 L 8.703125 -6.53125 Z M 10.875 -6.53125 "/></g></g><g transform="translate(388.367646, 20.789434)"><g><path d="M 0 -15.234375 L 10.875 -15.234375 L 10.875 -13.046875 L 6.53125 -13.046875 L 6.53125 0 L 4.359375 0 L 4.359375 -13.046875 L 0 -13.046875 Z M 0 -15.234375 "/></g></g><g transform="translate(403.596891, 20.789434)"><g><path d="M 2.171875 -2.171875 L 10.875 -2.171875 L 10.875 0 L 0 0 L 0 -15.234375 L 10.875 -15.234375 L 10.875 -13.046875 L 2.171875 -13.046875 L 2.171875 -8.703125 L 8.703125 -8.703125 L 8.703125 -6.515625 L 2.171875 -6.515625 Z M 2.171875 -2.171875 "/></g></g><g transform="translate(418.826136, 20.789434)"><g><path d="M 10.875 -6.53125 L 10.875 -15.234375 L 13.046875 -15.234375 L 13.046875 0 L 10.875 0 L 10.875 -4.359375 L 8.703125 -4.359375 L 8.703125 -6.53125 L 6.53125 -6.53125 L 6.53125 -8.703125 L 4.359375 -8.703125 L 4.359375 -10.875 L 2.171875 -10.875 L 2.171875 0 L 0 0 L 0 -15.234375 L 2.171875 -15.234375 L 2.171875 -13.046875 L 4.359375 -13.046875 L 4.359375 -10.875 L 6.53125 -10.875 L 6.53125 -8.703125 L 8.703125 -8.703125 L 8.703125 -6.53125 Z M 10.875 -6.53125 "/></g></g><g transform="translate(436.221884, 20.789434)"><g><path d="M 8.703125 -2.171875 L 8.703125 0 L 0 0 L 0 -15.234375 L 8.703125 -15.234375 L 8.703125 -13.046875 L 10.875 -13.046875 L 10.875 -10.875 L 13.046875 -10.875 L 13.046875 -4.359375 L 10.875 -4.359375 L 10.875 -2.171875 Z M 8.671875 -13.046875 L 2.171875 -13.046875 L 2.171875 -2.171875 L 8.671875 -2.171875 L 8.671875 -4.359375 L 10.859375 -4.359375 L 10.859375 -10.875 L 8.671875 -10.875 Z M 8.671875 -13.046875 "/></g></g><g transform="translate(453.617632, 20.789434)"><g/></g><g transform="translate(460.138383, 20.789434)"><g><path d="M 2.171875 0 L 0 0 L 0 -15.234375 L 10.875 -15.234375 L 10.875 -13.046875 L 2.171875 -13.046875 L 2.171875 -8.703125 L 8.703125 -8.703125 L 8.703125 -6.515625 L 2.171875 -6.515625 Z M 2.171875 0 "/></g></g><g transform="translate(475.367627, 20.789434)"><g><path d="M 2.171875 -4.359375 L 0 -4.359375 L 0 -10.875 L 2.171875 -10.875 L 2.171875 -13.046875 L 4.359375 -13.046875 L 4.359375 -15.234375 L 10.875 -15.234375 L 10.875 -13.046875 L 13.046875 -13.046875 L 13.046875 -10.875 L 15.234375 -10.875 L 15.234375 -4.359375 L 13.046875 -4.359375 L 13.046875 -2.171875 L 10.875 -2.171875 L 10.875 0 L 4.359375 0 L 4.359375 -2.171875 L 2.171875 -2.171875 Z M 4.359375 -2.203125 L 10.875 -2.203125 L 10.875 -4.359375 L 13.03125 -4.359375 L 13.03125 -10.875 L 10.875 -10.875 L 10.875 -13.03125 L 4.359375 -13.03125 L 4.359375 -10.875 L 2.203125 -10.875 L 2.203125 -4.359375 L 4.359375 -4.359375 Z M 4.359375 -2.203125 "/></g></g><g transform="translate(494.940499, 20.789434)"><g><path d="M 13.046875 -13.046875 L 13.046875 -10.875 L 10.875 -10.875 L 10.875 -13.046875 L 4.359375 -13.046875 L 4.359375 -15.234375 L 10.875 -15.234375 L 10.875 -13.046875 Z M 4.359375 -4.328125 L 4.359375 -2.171875 L 10.875 -2.171875 L 10.875 0 L 4.359375 0 L 4.359375 -2.171875 L 2.171875 -2.171875 L 2.171875 -4.328125 Z M 2.171875 -10.875 L 2.171875 -4.359375 L 0 -4.359375 L 0 -10.875 Z M 10.875 -2.171875 L 10.875 -4.359375 L 13.046875 -4.359375 L 13.046875 -2.171875 Z M 4.359375 -10.890625 L 2.171875 -10.890625 L 2.171875 -13.046875 L 4.359375 -13.046875 Z M 4.359375 -10.890625 "/></g></g><g transform="translate(512.336247, 20.789434)"><g><path d="M 2.171875 -2.171875 L 0 -2.171875 L 0 -15.234375 L 2.171875 -15.234375 Z M 13.046875 -15.234375 L 13.046875 -2.171875 L 10.875 -2.171875 L 10.875 -15.234375 Z M 2.171875 -2.171875 L 10.875 -2.171875 L 10.875 0 L 2.171875 0 Z M 2.171875 -2.171875 "/></g></g><g transform="translate(529.731995, 20.789434)"><g><path d="M 2.171875 -8.703125 L 8.703125 -8.703125 L 8.703125 -6.515625 L 10.875 -6.515625 L 10.875 -2.171875 L 8.703125 -2.171875 L 8.703125 -6.515625 L 2.171875 -6.515625 Z M 2.171875 -15.234375 L 8.703125 -15.234375 L 8.703125 -13.046875 L 10.875 -13.046875 L 10.875 -10.875 L 8.703125 -10.875 L 8.703125 -13.046875 L 2.171875 -13.046875 Z M 2.171875 -2.171875 L 8.703125 -2.171875 L 8.703125 0 L 2.171875 0 Z M 2.171875 -8.703125 L 0 -8.703125 L 0 -13.046875 L 2.171875 -13.046875 Z M 2.171875 -2.171875 L 0 -2.171875 L 0 -4.359375 L 2.171875 -4.359375 Z M 2.171875 -2.171875 "/></g></g></g><g fill="#7edaf2" fill-opacity="1"><g transform="translate(1.619193, 20.789434)"><g><path d="M 2.171875 0 L 0 0 L 0 -15.234375 L 10.875 -15.234375 L 10.875 -13.046875 L 2.171875 -13.046875 L 2.171875 -8.703125 L 8.703125 -8.703125 L 8.703125 -6.515625 L 2.171875 -6.515625 Z M 2.171875 0 "/></g></g><g transform="translate(16.848438, 20.789434)"><g><path d="M 2.171875 -2.171875 L 0 -2.171875 L 0 -15.234375 L 2.171875 -15.234375 Z M 13.046875 -15.234375 L 13.046875 -2.171875 L 10.875 -2.171875 L 10.875 -15.234375 Z M 2.171875 -2.171875 L 10.875 -2.171875 L 10.875 0 L 2.171875 0 Z M 2.171875 -2.171875 "/></g></g><g transform="translate(34.244186, 20.789434)"><g><path d="M 8.703125 -2.171875 L 8.703125 0 L 0 0 L 0 -15.234375 L 2.15625 -15.234375 L 2.15625 -2.171875 Z M 8.703125 -2.171875 "/></g></g><g transform="translate(47.296307, 20.789434)"><g><path d="M 8.703125 -2.171875 L 8.703125 0 L 0 0 L 0 -15.234375 L 2.15625 -15.234375 L 2.15625 -2.171875 Z M 8.703125 -2.171875 "/></g></g><g transform="translate(60.348428, 20.789434)"><g/></g><g transform="translate(66.869179, 20.789434)"><g><path d="M 2.171875 -8.703125 L 8.703125 -8.703125 L 8.703125 -6.515625 L 10.875 -6.515625 L 10.875 -2.171875 L 8.703125 -2.171875 L 8.703125 -6.515625 L 2.171875 -6.515625 Z M 2.171875 -15.234375 L 8.703125 -15.234375 L 8.703125 -13.046875 L 10.875 -13.046875 L 10.875 -10.875 L 8.703125 -10.875 L 8.703125 -13.046875 L 2.171875 -13.046875 Z M 2.171875 -2.171875 L 8.703125 -2.171875 L 8.703125 0 L 2.171875 0 Z M 2.171875 -8.703125 L 0 -8.703125 L 0 -13.046875 L 2.171875 -13.046875 Z M 2.171875 -2.171875 L 0 -2.171875 L 0 -4.359375 L 2.171875 -4.359375 Z M 2.171875 -2.171875 "/></g></g><g transform="translate(82.098424, 20.789434)"><g><path d="M 0 -15.234375 L 10.875 -15.234375 L 10.875 -13.046875 L 6.53125 -13.046875 L 6.53125 0 L 4.359375 0 L 4.359375 -13.046875 L 0 -13.046875 Z M 0 -15.234375 "/></g></g><g transform="translate(97.327668, 20.789434)"><g><path d="M 4.359375 -15.234375 L 8.703125 -15.234375 L 8.703125 -10.875 L 10.875 -10.875 L 10.875 -4.359375 L 13.046875 -4.359375 L 13.046875 0 L 10.875 0 L 10.875 -4.359375 L 2.171875 -4.359375 L 2.171875 -10.875 L 4.359375 -10.875 Z M 8.703125 -6.53125 L 8.703125 -10.859375 L 4.359375 -10.859375 L 4.359375 -6.53125 Z M 0 0 L 0 -4.359375 L 2.171875 -4.359375 L 2.171875 0 Z M 0 0 "/></g></g><g transform="translate(114.723417, 20.789434)"><g><path d="M 13.046875 -13.046875 L 13.046875 -10.875 L 10.875 -10.875 L 10.875 -13.046875 L 4.359375 -13.046875 L 4.359375 -15.234375 L 10.875 -15.234375 L 10.875 -13.046875 Z M 4.359375 -4.328125 L 4.359375 -2.171875 L 10.875 -2.171875 L 10.875 0 L 4.359375 0 L 4.359375 -2.171875 L 2.171875 -2.171875 L 2.171875 -4.328125 Z M 2.171875 -10.875 L 2.171875 -4.359375 L 0 -4.359375 L 0 -10.875 Z M 10.875 -2.171875 L 10.875 -4.359375 L 13.046875 -4.359375 L 13.046875 -2.171875 Z M 4.359375 -10.890625 L 2.171875 -10.890625 L 2.171875 -13.046875 L 4.359375 -13.046875 Z M 4.359375 -10.890625 "/></g></g><g transform="translate(132.119165, 20.789434)"><g><path d="M 2.171875 0 L 0 0 L 0 -15.234375 L 2.171875 -15.234375 L 2.171875 -8.703125 L 4.359375 -8.703125 L 4.359375 -10.875 L 6.53125 -10.875 L 6.53125 -6.515625 L 8.703125 -6.515625 L 8.703125 -4.359375 L 10.875 -4.359375 L 10.875 0 L 8.703125 0 L 8.703125 -4.359375 L 6.53125 -4.359375 L 6.53125 -6.515625 L 2.171875 -6.515625 Z M 8.703125 -13.046875 L 8.703125 -15.234375 L 10.875 -15.234375 L 10.875 -13.046875 Z M 6.515625 -13.046875 L 8.703125 -13.046875 L 8.703125 -10.875 L 6.515625 -10.875 Z M 6.515625 -13.046875 "/></g></g><g transform="translate(147.348409, 20.789434)"><g/></g><g transform="translate(153.86916, 20.789434)"><g><path d="M 8.703125 -2.171875 L 8.703125 0 L 0 0 L 0 -15.234375 L 8.703125 -15.234375 L 8.703125 -13.046875 L 10.875 -13.046875 L 10.875 -10.875 L 13.046875 -10.875 L 13.046875 -4.359375 L 10.875 -4.359375 L 10.875 -2.171875 Z M 8.671875 -13.046875 L 2.171875 -13.046875 L 2.171875 -2.171875 L 8.671875 -2.171875 L 8.671875 -4.359375 L 10.859375 -4.359375 L 10.859375 -10.875 L 8.671875 -10.875 Z M 8.671875 -13.046875 "/></g></g><g transform="translate(171.264908, 20.789434)"><g><path d="M 2.171875 -2.171875 L 10.875 -2.171875 L 10.875 0 L 0 0 L 0 -15.234375 L 10.875 -15.234375 L 10.875 -13.046875 L 2.171875 -13.046875 L 2.171875 -8.703125 L 8.703125 -8.703125 L 8.703125 -6.515625 L 2.171875 -6.515625 Z M 2.171875 -2.171875 "/></g></g><g transform="translate(186.494153, 20.789434)"><g><path d="M 4.359375 -10.875 L 4.359375 -4.359375 L 8.703125 -4.359375 L 8.703125 0 L 4.359375 0 L 4.359375 -4.359375 L 2.171875 -4.359375 L 2.171875 -10.875 L 0 -10.875 L 0 -15.234375 L 2.171875 -15.234375 L 2.171875 -10.875 Z M 8.703125 -4.359375 L 8.703125 -10.875 L 10.875 -10.875 L 10.875 -4.359375 Z M 10.875 -15.234375 L 13.046875 -15.234375 L 13.046875 -10.875 L 10.875 -10.875 Z M 10.875 -15.234375 "/></g></g><g transform="translate(203.889901, 20.789434)"><g><path d="M 2.171875 -2.171875 L 10.875 -2.171875 L 10.875 0 L 0 0 L 0 -15.234375 L 10.875 -15.234375 L 10.875 -13.046875 L 2.171875 -13.046875 L 2.171875 -8.703125 L 8.703125 -8.703125 L 8.703125 -6.515625 L 2.171875 -6.515625 Z M 2.171875 -2.171875 "/></g></g><g transform="translate(219.119146, 20.789434)"><g><path d="M 8.703125 -2.171875 L 8.703125 0 L 0 0 L 0 -15.234375 L 2.15625 -15.234375 L 2.15625 -2.171875 Z M 8.703125 -2.171875 "/></g></g><g transform="translate(232.171267, 20.789434)"><g><path d="M 2.171875 -4.359375 L 0 -4.359375 L 0 -10.875 L 2.171875 -10.875 L 2.171875 -13.046875 L 4.359375 -13.046875 L 4.359375 -15.234375 L 10.875 -15.234375 L 10.875 -13.046875 L 13.046875 -13.046875 L 13.046875 -10.875 L 15.234375 -10.875 L 15.234375 -4.359375 L 13.046875 -4.359375 L 13.046875 -2.171875 L 10.875 -2.171875 L 10.875 0 L 4.359375 0 L 4.359375 -2.171875 L 2.171875 -2.171875 Z M 4.359375 -2.203125 L 10.875 -2.203125 L 10.875 -4.359375 L 13.03125 -4.359375 L 13.03125 -10.875 L 10.875 -10.875 L 10.875 -13.03125 L 4.359375 -13.03125 L 4.359375 -10.875 L 2.203125 -10.875 L 2.203125 -4.359375 L 4.359375 -4.359375 Z M 4.359375 -2.203125 "/></g></g><g transform="translate(251.744139, 20.789434)"><g><path d="M 8.703125 -8.703125 L 8.703125 -6.515625 L 2.171875 -6.515625 L 2.171875 0 L 0 0 L 0 -15.234375 L 8.703125 -15.234375 L 8.703125 -13.046875 L 10.875 -13.046875 L 10.875 -8.703125 Z M 2.171875 -8.703125 L 8.671875 -8.703125 L 8.671875 -13.046875 L 2.171875 -13.046875 Z M 2.171875 -8.703125 "/></g></g><g transform="translate(266.973383, 20.789434)"><g><path d="M 2.171875 -2.171875 L 10.875 -2.171875 L 10.875 0 L 0 0 L 0 -15.234375 L 10.875 -15.234375 L 10.875 -13.046875 L 2.171875 -13.046875 L 2.171875 -8.703125 L 8.703125 -8.703125 L 8.703125 -6.515625 L 2.171875 -6.515625 Z M 2.171875 -2.171875 "/></g></g><g transform="translate(282.202628, 20.789434)"><g><path d="M 2.171875 -6.515625 L 2.171875 0 L 0 0 L 0 -15.234375 L 8.703125 -15.234375 L 8.703125 -13.046875 L 10.875 -13.046875 L 10.875 -8.703125 L 8.703125 -8.703125 L 8.703125 -6.515625 Z M 2.171875 -8.703125 L 8.671875 -8.703125 L 8.671875 -13.046875 L 2.171875 -13.046875 Z M 10.875 -6.515625 L 10.875 0 L 8.703125 0 L 8.703125 -6.515625 Z M 10.875 -6.515625 "/></g></g><g transform="translate(297.431873, 20.789434)"><g/></g><g transform="translate(303.952623, 20.789434)"><g><path d="M 0 -6.53125 L 6.515625 -6.53125 L 6.515625 -4.359375 L 0 -4.359375 Z M 0 -6.53125 "/></g></g><g transform="translate(314.827621, 20.789434)"><g/></g><g transform="translate(321.348371, 20.789434)"><g><path d="M 2.171875 0 L 0 0 L 0 -15.234375 L 10.875 -15.234375 L 10.875 -13.046875 L 2.171875 -13.046875 L 2.171875 -8.703125 L 8.703125 -8.703125 L 8.703125 -6.515625 L 2.171875 -6.515625 Z M 2.171875 0 "/></g></g><g transform="translate(336.577616, 20.789434)"><g><path d="M 2.171875 -6.515625 L 2.171875 0 L 0 0 L 0 -15.234375 L 8.703125 -15.234375 L 8.703125 -13.046875 L 10.875 -13.046875 L 10.875 -8.703125 L 8.703125 -8.703125 L 8.703125 -6.515625 Z M 2.171875 -8.703125 L 8.671875 -8.703125 L 8.671875 -13.046875 L 2.171875 -13.046875 Z M 10.875 -6.515625 L 10.875 0 L 8.703125 0 L 8.703125 -6.515625 Z M 10.875 -6.515625 "/></g></g><g transform="translate(351.806861, 20.789434)"><g><path d="M 2.171875 -4.359375 L 0 -4.359375 L 0 -10.875 L 2.171875 -10.875 L 2.171875 -13.046875 L 4.359375 -13.046875 L 4.359375 -15.234375 L 10.875 -15.234375 L 10.875 -13.046875 L 13.046875 -13.046875 L 13.046875 -10.875 L 15.234375 -10.875 L 15.234375 -4.359375 L 13.046875 -4.359375 L 13.046875 -2.171875 L 10.875 -2.171875 L 10.875 0 L 4.359375 0 L 4.359375 -2.171875 L 2.171875 -2.171875 Z M 4.359375 -2.203125 L 10.875 -2.203125 L 10.875 -4.359375 L 13.03125 -4.359375 L 13.03125 -10.875 L 10.875 -10.875 L 10.875 -13.03125 L 4.359375 -13.03125 L 4.359375 -10.875 L 2.203125 -10.875 L 2.203125 -4.359375 L 4.359375 -4.359375 Z M 4.359375 -2.203125 "/></g></g><g transform="translate(371.379732, 20.789434)"><g><path d="M 10.875 -6.53125 L 10.875 -15.234375 L 13.046875 -15.234375 L 13.046875 0 L 10.875 0 L 10.875 -4.359375 L 8.703125 -4.359375 L 8.703125 -6.53125 L 6.53125 -6.53125 L 6.53125 -8.703125 L 4.359375 -8.703125 L 4.359375 -10.875 L 2.171875 -10.875 L 2.171875 0 L 0 0 L 0 -15.234375 L 2.171875 -15.234375 L 2.171875 -13.046875 L 4.359375 -13.046875 L 4.359375 -10.875 L 6.53125 -10.875 L 6.53125 -8.703125 L 8.703125 -8.703125 L 8.703125 -6.53125 Z M 10.875 -6.53125 "/></g></g><g transform="translate(388.775481, 20.789434)"><g><path d="M 0 -15.234375 L 10.875 -15.234375 L 10.875 -13.046875 L 6.53125 -13.046875 L 6.53125 0 L 4.359375 0 L 4.359375 -13.046875 L 0 -13.046875 Z M 0 -15.234375 "/></g></g><g transform="translate(404.004725, 20.789434)"><g><path d="M 2.171875 -2.171875 L 10.875 -2.171875 L 10.875 0 L 0 0 L 0 -15.234375 L 10.875 -15.234375 L 10.875 -13.046875 L 2.171875 -13.046875 L 2.171875 -8.703125 L 8.703125 -8.703125 L 8.703125 -6.515625 L 2.171875 -6.515625 Z M 2.171875 -2.171875 "/></g></g><g transform="translate(419.23397, 20.789434)"><g><path d="M 10.875 -6.53125 L 10.875 -15.234375 L 13.046875 -15.234375 L 13.046875 0 L 10.875 0 L 10.875 -4.359375 L 8.703125 -4.359375 L 8.703125 -6.53125 L 6.53125 -6.53125 L 6.53125 -8.703125 L 4.359375 -8.703125 L 4.359375 -10.875 L 2.171875 -10.875 L 2.171875 0 L 0 0 L 0 -15.234375 L 2.171875 -15.234375 L 2.171875 -13.046875 L 4.359375 -13.046875 L 4.359375 -10.875 L 6.53125 -10.875 L 6.53125 -8.703125 L 8.703125 -8.703125 L 8.703125 -6.53125 Z M 10.875 -6.53125 "/></g></g><g transform="translate(436.629718, 20.789434)"><g><path d="M 8.703125 -2.171875 L 8.703125 0 L 0 0 L 0 -15.234375 L 8.703125 -15.234375 L 8.703125 -13.046875 L 10.875 -13.046875 L 10.875 -10.875 L 13.046875 -10.875 L 13.046875 -4.359375 L 10.875 -4.359375 L 10.875 -2.171875 Z M 8.671875 -13.046875 L 2.171875 -13.046875 L 2.171875 -2.171875 L 8.671875 -2.171875 L 8.671875 -4.359375 L 10.859375 -4.359375 L 10.859375 -10.875 L 8.671875 -10.875 Z M 8.671875 -13.046875 "/></g></g><g transform="translate(454.025466, 20.789434)"><g/></g><g transform="translate(460.546217, 20.789434)"><g><path d="M 2.171875 0 L 0 0 L 0 -15.234375 L 10.875 -15.234375 L 10.875 -13.046875 L 2.171875 -13.046875 L 2.171875 -8.703125 L 8.703125 -8.703125 L 8.703125 -6.515625 L 2.171875 -6.515625 Z M 2.171875 0 "/></g></g><g transform="translate(475.775462, 20.789434)"><g><path d="M 2.171875 -4.359375 L 0 -4.359375 L 0 -10.875 L 2.171875 -10.875 L 2.171875 -13.046875 L 4.359375 -13.046875 L 4.359375 -15.234375 L 10.875 -15.234375 L 10.875 -13.046875 L 13.046875 -13.046875 L 13.046875 -10.875 L 15.234375 -10.875 L 15.234375 -4.359375 L 13.046875 -4.359375 L 13.046875 -2.171875 L 10.875 -2.171875 L 10.875 0 L 4.359375 0 L 4.359375 -2.171875 L 2.171875 -2.171875 Z M 4.359375 -2.203125 L 10.875 -2.203125 L 10.875 -4.359375 L 13.03125 -4.359375 L 13.03125 -10.875 L 10.875 -10.875 L 10.875 -13.03125 L 4.359375 -13.03125 L 4.359375 -10.875 L 2.203125 -10.875 L 2.203125 -4.359375 L 4.359375 -4.359375 Z M 4.359375 -2.203125 "/></g></g><g transform="translate(495.348333, 20.789434)"><g><path d="M 13.046875 -13.046875 L 13.046875 -10.875 L 10.875 -10.875 L 10.875 -13.046875 L 4.359375 -13.046875 L 4.359375 -15.234375 L 10.875 -15.234375 L 10.875 -13.046875 Z M 4.359375 -4.328125 L 4.359375 -2.171875 L 10.875 -2.171875 L 10.875 0 L 4.359375 0 L 4.359375 -2.171875 L 2.171875 -2.171875 L 2.171875 -4.328125 Z M 2.171875 -10.875 L 2.171875 -4.359375 L 0 -4.359375 L 0 -10.875 Z M 10.875 -2.171875 L 10.875 -4.359375 L 13.046875 -4.359375 L 13.046875 -2.171875 Z M 4.359375 -10.890625 L 2.171875 -10.890625 L 2.171875 -13.046875 L 4.359375 -13.046875 Z M 4.359375 -10.890625 "/></g></g><g transform="translate(512.744081, 20.789434)"><g><path d="M 2.171875 -2.171875 L 0 -2.171875 L 0 -15.234375 L 2.171875 -15.234375 Z M 13.046875 -15.234375 L 13.046875 -2.171875 L 10.875 -2.171875 L 10.875 -15.234375 Z M 2.171875 -2.171875 L 10.875 -2.171875 L 10.875 0 L 2.171875 0 Z M 2.171875 -2.171875 "/></g></g><g transform="translate(530.13983, 20.789434)"><g><path d="M 2.171875 -8.703125 L 8.703125 -8.703125 L 8.703125 -6.515625 L 10.875 -6.515625 L 10.875 -2.171875 L 8.703125 -2.171875 L 8.703125 -6.515625 L 2.171875 -6.515625 Z M 2.171875 -15.234375 L 8.703125 -15.234375 L 8.703125 -13.046875 L 10.875 -13.046875 L 10.875 -10.875 L 8.703125 -10.875 L 8.703125 -13.046875 L 2.171875 -13.046875 Z M 2.171875 -2.171875 L 8.703125 -2.171875 L 8.703125 0 L 2.171875 0 Z M 2.171875 -8.703125 L 0 -8.703125 L 0 -13.046875 L 2.171875 -13.046875 Z M 2.171875 -2.171875 L 0 -2.171875 L 0 -4.359375 L 2.171875 -4.359375 Z M 2.171875 -2.171875 "/></g></g></g></g></g></g></g></g><g clip-path="url(#ea942fc0aa)"><path fill="#f9b3b5" d="M 564.964844 30 L 564.964844 26.25 L 568.714844 26.25 L 568.714844 22.5 L 572.464844 22.5 L 572.464844 18.75 L 568.714844 18.75 L 568.714844 15 L 564.964844 15 L 564.964844 18.75 L 561.214844 18.75 L 561.214844 15 L 557.464844 15 L 557.464844 18.75 L 553.714844 18.75 L 553.714844 22.5 L 557.464844 22.5 L 557.464844 26.25 L 561.214844 26.25 L 561.214844 30 Z M 564.964844 30 " fill-opacity="1" fill-rule="nonzero"/></g><g clip-path="url(#d17e456d44)"><path fill="#f9b3b5" d="M 609.964844 33.75 L 609.964844 30 L 606.214844 30 L 606.214844 33.75 L 602.464844 33.75 L 602.464844 30 L 598.714844 30 L 598.714844 33.75 L 594.964844 33.75 L 594.964844 37.5 L 598.714844 37.5 L 598.714844 41.25 L 602.464844 41.25 L 602.464844 45 L 606.214844 45 L 606.214844 41.25 L 609.964844 41.25 L 609.964844 37.5 L 613.714844 37.5 L 613.714844 33.75 Z M 609.964844 33.75 " fill-opacity="1" fill-rule="nonzero"/></g><path fill="#f9b3b5" d="M 579.964844 60 L 576.214844 60 L 576.214844 63.75 L 572.464844 63.75 L 572.464844 60 L 568.714844 60 L 568.714844 63.75 L 564.964844 63.75 L 564.964844 67.5 L 568.714844 67.5 L 568.714844 71.25 L 572.464844 71.25 L 572.464844 75 L 576.214844 75 L 576.214844 71.25 L 579.964844 71.25 L 579.964844 67.5 L 583.714844 67.5 L 583.714844 63.75 L 579.964844 63.75 Z M 579.964844 60 " fill-opacity="1" fill-rule="nonzero"/></svg>